<?xml version="1.0" encoding="utf-8"?>
<svg version="1.1" xmlns="http://www.w3.org/2000/svg" xmlns:xlink="http://www.w3.org/1999/xlink" x="0px" y="0px"
	 viewBox="0 0 256 256" style="enable-background:new 0 0 256 256;" xml:space="preserve">
<style type="text/css">
	.st0{fill:#669999;}
	.st1{fill:#FFFFFF;}
	.st2{fill:#BF4C40;}
	.st3{fill:#5BBC40;}
	.st4{fill:#E29038;}
	.st5{opacity:0.4;fill:#FFFFFF;}
</style>
<rect y="0.3" class="st0" width="256" height="256"/>
<g>
	<path class="st1" d="M145.3,125.2C145.3,125.2,145.2,125.2,145.3,125.2l-2,0v-6.7c0.3-9.3-7.1-17.2-16.6-17.5
		c-9.5-0.3-17.5,7-17.8,16.3c0,0.4,0,0.8,0,1.2v6.7h-4c-3.7,0-6.7,3-6.7,6.7v33.8c0,3.7,2.9,6.8,6.6,6.8c0,0,0,0,0.1,0h40.4
		c3.7,0,6.7-3,6.7-6.7V132C152,128.3,149,125.2,145.3,125.2z M115.3,118.9c0-5.1,3.4-9.6,8.4-10.7c7-1.5,13.2,3.7,13.2,10.2v6.7
		h-21.5V118.9z M118.6,153.7l-5-5c-2.7-3.3-2.7-8.1,0-11.3c3.1-3.8,8.8-4.4,12.6-1.2l5,5.1l-2.4,2.4l-5-5.1c-2.2-2.1-5.6-2.1-7.8,0
		c0,0,0,0,0,0c-2.1,2.1-2.1,5.6,0,7.8l5,5L118.6,153.7z M132.4,152.5l-2.5,2.4l-10.1-10.1l2.5-2.4L132.4,152.5z M138.7,159.9
		c-3.1,3.8-8.7,4.4-12.6,1.3l-5-5l2.4-2.4l5,5c2.2,2.2,5.7,2.2,7.8,0c2.2-2.2,2.2-5.7,0-7.8l-5-5l2.4-2.4l5,5
		C141.3,152,141.3,156.6,138.7,159.9z"/>
	<g>
		<g>
			<path class="st1" d="M219.9,55.6H36.2c-3.4,0-6.1,2.7-6.1,6.1v132.5c0,3.4,2.7,6.1,6.1,6.1h183.6c3.4,0,6.1-2.7,6.1-6.1V61.7
				C225.9,58.3,223.2,55.6,219.9,55.6z M213.7,188.2H42.3V88.1h171.4V188.2z M213.8,79.2H90.1V64.8h123.7V79.2z"/>
			<circle class="st2" cx="47.6" cy="71.4" r="5.3"/>
			<circle class="st3" cx="79.5" cy="71.5" r="5.3"/>
			<circle class="st4" cx="63.5" cy="71.4" r="5.3"/>
			<rect x="90.1" y="64.8" class="st5" width="123.7" height="14.4"/>
		</g>
	</g>
</g>
</svg>
